<svg xmlns="http://www.w3.org/2000/svg" viewBox="0 0 100 100" width="100" height="100">
  <defs>
    <linearGradient id="docGrad" x1="0%" y1="0%" x2="100%" y2="100%">
      <stop offset="0%" stop-color="#f8f9fc"/>
      <stop offset="100%" stop-color="#d1d8e8"/>
    </linearGradient>
    
    <linearGradient id="foldGrad" x1="0%" y1="0%" x2="100%" y2="100%">
      <stop offset="0%" stop-color="#ffffff"/>
      <stop offset="100%" stop-color="#e2e6f0"/>
    </linearGradient>

    <linearGradient id="arrowGrad" x1="0%" y1="0%" x2="100%" y2="100%">
      <stop offset="0%" stop-color="#0055ff"/>
      <stop offset="100%" stop-color="#00c3ff"/>
    </linearGradient>

    <filter id="dropShadow" x="-20%" y="-20%" width="150%" height="150%">
      <feDropShadow dx="3" dy="5" stdDeviation="4" flood-color="#001144" flood-opacity="0.2"/>
    </filter>
  </defs>

  <path d="M 25 15 
           L 55 15 
           L 75 35 
           L 75 80 
           Q 75 85 70 85 
           L 30 85 
           Q 25 85 25 80 Z" 
        fill="url(#docGrad)" 
        filter="url(#dropShadow)"/>

  <path d="M 55 15 
           L 55 30 
           Q 55 35 60 35 
           L 75 35 Z" 
        fill="url(#foldGrad)" 
        filter="url(#dropShadow)"/>

  <rect x="35" y="45" width="30" height="4" rx="2" fill="#5c719e" opacity="0.8"/>
  <rect x="35" y="55" width="24" height="4" rx="2" fill="#5c719e" opacity="0.8"/>
  <rect x="35" y="65" width="18" height="4" rx="2" fill="#5c719e" opacity="0.8"/>

  <path d="M 45 95 
           Q 48 70 60 70 
           L 60 55 
           L 80 70 
           L 60 85 
           L 60 77 
           Q 48 77 45 95 Z" 
        fill="url(#arrowGrad)" 
        filter="url(#dropShadow)"/>
</svg>